<svg width="30" height="30" viewBox="0 0 30 30" fill="none" xmlns="http://www.w3.org/2000/svg">
<path d="M23.7398 28.28C20.4656 28.28 17.8008 25.6151 17.8008 22.3409C17.8008 19.0644 20.4656 16.4019 23.7398 16.4019C27.0164 16.4019 29.6789 19.0667 29.6789 22.3409C29.6812 25.6151 27.0164 28.28 23.7398 28.28ZM23.7398 17.9815C21.3352 17.9815 19.3828 19.9386 19.3828 22.3409C19.3828 24.7433 21.3375 26.7003 23.7398 26.7003C26.1422 26.7003 28.0992 24.7433 28.0992 22.3409C28.0992 19.9362 26.1445 17.9815 23.7398 17.9815Z" fill="#2F2F2F"/>
<path d="M6.26023 28.28C2.98601 28.28 0.321167 25.6151 0.321167 22.3409C0.321167 19.0644 2.98601 16.4019 6.26023 16.4019C9.53679 16.4019 12.2016 19.0667 12.2016 22.3409C12.1993 25.6151 9.53445 28.28 6.26023 28.28ZM6.26023 17.9815C3.85789 17.9815 1.9032 19.9386 1.9032 22.3409C1.9032 24.7433 3.85789 26.7003 6.26023 26.7003C8.66257 26.7003 10.6196 24.7433 10.6196 22.3409C10.6173 19.9362 8.66257 17.9815 6.26023 17.9815Z" fill="#2F2F2F"/>
<mask id="mask0_34_1093" style="mask-type:luminance" maskUnits="userSpaceOnUse" x="0" y="16" width="13" height="13">
<path d="M6.26023 28.28C2.98601 28.28 0.321167 25.6151 0.321167 22.3409C0.321167 19.0644 2.98601 16.4019 6.26023 16.4019C9.53679 16.4019 12.2016 19.0667 12.2016 22.3409C12.1993 25.6151 9.53445 28.28 6.26023 28.28ZM6.26023 17.9815C3.85789 17.9815 1.9032 19.9386 1.9032 22.3409C1.9032 24.7433 3.85789 26.7003 6.26023 26.7003C8.66257 26.7003 10.6196 24.7433 10.6196 22.3409C10.6173 19.9362 8.66257 17.9815 6.26023 17.9815Z" fill="white"/>
</mask>
<g mask="url(#mask0_34_1093)">
<path d="M0.787585 21.5044C1.2704 21.481 1.41805 20.8481 1.56337 20.4895C2.27821 18.6942 4.10165 17.4802 5.99305 17.288C6.39618 17.2481 7.20477 17.2786 7.18602 16.6669C7.17899 16.3833 6.91415 16.3083 6.68212 16.2567C6.39384 16.1911 6.09149 16.231 5.79852 16.2286C4.22821 16.2192 2.70243 17.1263 1.73212 18.3239C1.40165 18.7294 1.06884 19.0341 0.846179 19.5169C0.717273 19.7981 0.588367 20.07 0.471179 20.3583C0.370398 20.5997 0.257898 20.8763 0.32821 21.1458C0.375085 21.3169 0.525085 21.4786 0.705554 21.4997C0.731335 21.5044 0.761804 21.5067 0.787585 21.5044Z" fill="#2F2F2F"/>
</g>
<path d="M24.272 21.7307L19.1439 14.8236V13.5393C19.1439 13.4454 19.1254 13.3524 19.0894 13.2657C19.0535 13.179 19.0009 13.1002 18.9345 13.0338C18.8681 12.9674 18.7893 12.9148 18.7026 12.8788C18.6158 12.8429 18.5229 12.8244 18.429 12.8244C18.3351 12.8244 18.2422 12.8429 18.1555 12.8788C18.0687 12.9148 17.9899 12.9674 17.9235 13.0338C17.8572 13.1002 17.8045 13.179 17.7686 13.2657C17.7327 13.3524 17.7142 13.4454 17.7142 13.5393V14.3432H10.9009C10.9548 14.0783 11.004 13.8135 11.0509 13.5486L11.1024 13.2439C11.2923 12.0932 11.4118 11.9736 11.8782 11.9736H11.8946C12.2743 11.976 12.6517 11.976 13.0314 11.976H13.5939C13.7834 11.976 13.9653 11.9007 14.0993 11.7666C14.2334 11.6325 14.3087 11.4507 14.3087 11.2611C14.3087 11.0715 14.2334 10.8897 14.0993 10.7557C13.9653 10.6216 13.7834 10.5463 13.5939 10.5463H13.0267C12.6493 10.5463 12.2743 10.5463 11.897 10.5439H11.8829C10.097 10.5439 9.84151 12.0885 9.68917 13.0119L9.64229 13.2979C9.11495 16.2721 8.3087 19.34 6.00714 21.6486C6.0001 21.658 5.98839 21.6674 5.97901 21.6791C5.95089 21.6908 5.92276 21.7072 5.89464 21.7236C5.81397 21.7716 5.74359 21.8351 5.68753 21.9104C5.63148 21.9857 5.59084 22.0713 5.56798 22.1623C5.54511 22.2534 5.54045 22.348 5.55428 22.4409C5.56811 22.5337 5.60014 22.6229 5.64854 22.7033C5.78682 22.933 6.02354 23.076 6.28604 23.0854H6.31182C6.71729 23.0854 6.94932 22.7783 7.05948 22.6189C8.83604 20.8213 9.79932 18.6721 10.411 16.4572L14.522 22.5533C14.5431 22.5838 14.5689 22.6072 14.5923 22.6354C14.6017 22.6447 14.611 22.6564 14.6204 22.6682C14.679 22.7244 14.7446 22.7689 14.8173 22.8018C14.8337 22.8088 14.8501 22.8135 14.8665 22.8205C14.9462 22.851 15.0282 22.8697 15.1149 22.8697H23.7001C23.9696 22.8697 24.2157 22.7174 24.3376 22.476C24.4595 22.2346 24.4337 21.9463 24.272 21.7307ZM15.0001 20.7088L11.6743 15.7775H17.304L15.0001 20.7088ZM16.2376 21.44L18.5696 16.4502L22.2774 21.44H16.2376Z" fill="#ED6C30"/>
<path d="M20.4961 12.0022C20.175 11.8803 19.8492 11.9764 19.507 12.0139C19.0898 12.0631 18.6703 12.1123 18.2531 12.1522C17.5594 12.2201 16.868 12.3889 16.1789 12.4639C15.7781 12.5061 15.4523 12.8623 15.3703 13.2373C15.2625 13.7506 15.6422 13.999 16.0852 14.1537C16.6312 14.3459 17.2148 14.3811 17.7867 14.4256C18.4078 14.4725 19.0383 14.5639 19.6641 14.5475C20.2734 14.5311 20.9062 14.1865 21.1711 13.624C21.4453 13.0405 21.1805 12.3631 20.6156 12.0561C20.5758 12.035 20.5359 12.0186 20.4961 12.0022Z" fill="#2F2F2F"/>
<path d="M11.1773 10.5447C11.496 10.2892 12.0866 10.247 12.4757 10.2306C13.0335 10.2095 13.6054 10.2165 14.1656 10.2306C14.5851 10.24 14.9648 10.622 15.0257 11.0322C15.0515 11.2056 15.0398 11.454 14.939 11.604C14.2874 12.5603 13.1296 12.1642 12.171 12.2884C11.6718 12.354 11.3835 12.2368 11.0976 11.8009C10.8374 11.4165 10.7765 10.8634 11.1773 10.5447Z" fill="#2F2F2F"/>
<path fill-rule="evenodd" clip-rule="evenodd" d="M15.5179 22.2627C15.3937 22.3775 15.396 22.6049 15.3375 22.7525C15.2554 22.9705 15.2062 23.1744 15.1921 23.4041C15.1804 23.6408 15.0937 23.8564 15.0656 24.0931C14.9976 24.6275 15.7335 24.501 15.8742 24.1306C16.0031 23.7885 16.0453 23.4181 16.1156 23.0619C16.1671 22.8064 16.4414 22.2791 16.057 22.1197C15.9468 22.0752 15.6187 22.1783 15.5343 22.2439C15.5273 22.251 15.5226 22.2556 15.5179 22.2627Z" fill="#2F2F2F"/>
<path fill-rule="evenodd" clip-rule="evenodd" d="M15.8298 23.8599C15.7618 23.8599 15.6939 23.8599 15.6329 23.8576C15.3751 23.8482 15.1056 23.806 14.8478 23.8271C14.3743 23.867 13.7603 24.1998 13.7978 24.7482C13.8423 25.4302 14.3556 25.3459 14.8782 25.3459C15.4009 25.3459 16.2845 25.4795 16.7204 25.1138C17.0439 24.8396 16.9595 24.1717 16.5915 23.9701C16.3665 23.8482 16.09 23.8576 15.8298 23.8599Z" fill="#2F2F2F"/>
</svg>
