<svg width="30" height="30" viewBox="0 0 30 30" fill="none" xmlns="http://www.w3.org/2000/svg">
<path d="M12.8719 6.5625L13.8563 8.48438L11.8876 9.51562L10.9032 7.54688L12.8719 6.5625Z" fill="#F4C6AD"/>
<path d="M11.6955 7.88532C12.1173 7.65844 12.4623 7.32282 12.6939 6.91594L13.022 5.71313L13.397 4.46438C13.3946 4.24602 13.3484 4.03036 13.2612 3.83019C13.1739 3.63001 13.0473 3.44941 12.8889 3.29907C12.5598 2.98813 12.1247 2.81416 11.672 2.8125H10.547C10.319 2.81201 10.0931 2.8553 9.8814 2.94C9.67046 3.02438 9.47827 3.14625 9.31702 3.30188C9.15752 3.45638 9.03009 3.64084 8.94202 3.84469C8.85577 4.04719 8.81077 4.26375 8.81265 4.48219V5.15625C8.71672 5.33784 8.60603 5.51123 8.48171 5.67469C8.39546 5.78907 8.35327 5.84625 8.35327 5.95594C8.36733 6.06282 8.42171 6.16125 8.50608 6.2325C8.59046 6.30375 8.70015 6.34219 8.81265 6.34125H8.8164C8.83983 7.41094 9.01327 8.20032 10.3126 8.20032C10.7935 8.2218 11.2713 8.11297 11.6955 7.88532Z" fill="#FFD7C2"/>
<path d="M16.9745 9.27185C17.0931 9.22192 17.223 9.20463 17.3506 9.22178C17.4781 9.23892 17.5988 9.28987 17.7001 9.36935L19.9717 11.1393C19.9904 11.4318 20.0823 11.7993 20.4188 11.8218H20.9063C20.9063 11.8218 21.0657 12.1593 21.3751 12.0562C21.6563 11.9372 21.9076 11.7543 22.1063 11.5218C22.3688 11.2125 22.5938 10.7062 22.4907 10.4531C22.3189 10.1945 22.0955 9.97426 21.8345 9.80622L21.1782 9.31872L19.0313 7.67435C18.6291 7.35944 18.1504 7.1569 17.6443 7.0874C17.1382 7.01789 16.6227 7.08391 16.1504 7.27872L13.0754 8.49372L13.3473 9.17903L12.9423 8.87153C12.0819 10.0009 10.822 10.7583 9.42099 10.9884C8.01998 11.2185 6.58402 10.9039 5.40759 10.109C5.35322 9.84278 5.22009 9.49028 4.90322 9.33747C4.82836 9.28581 4.73693 9.26391 4.64678 9.27605C4.55664 9.28818 4.47426 9.33348 4.41572 9.4031C4.41572 9.4031 4.23759 9.0656 3.92822 9.19685C3.64898 9.34114 3.40307 9.54234 3.20634 9.78747C3.09527 9.9502 3.02312 10.1363 2.99549 10.3314C2.96785 10.5265 2.98546 10.7253 3.04697 10.9125C3.18281 11.1574 3.37181 11.3689 3.60009 11.5312L3.97884 11.7393C5.60715 12.9252 7.63466 13.4273 9.62818 13.1382C11.6217 12.8492 13.4231 11.792 14.6476 10.1925L16.9632 9.27653L16.9745 9.27185ZM16.8001 14.5968L16.3782 14.325C16.4426 14.4443 16.4963 14.5678 16.5395 14.6953L12.5392 18.0684L10.0379 18.0459L9.42197 18.5709C8.97789 19.2176 8.64517 19.9341 8.43759 20.6906L6.46884 25.9593L7.79072 26.8312L11.1282 20.9812L14.6532 18.285L16.5376 20.9353C16.7507 21.2328 17.0462 21.4615 17.3877 21.5931C17.7292 21.7247 18.1018 21.7535 18.4595 21.6759L24.272 20.3728L23.7001 18.7509L18.5907 19.2009L16.6745 15.4322C16.6663 15.1812 16.6208 14.9329 16.5395 14.6953L16.8001 14.5968Z" fill="#FFD7C2"/>
<path d="M25.6539 22.4175L23.4376 20.4356L23.5173 18.6909L24.5898 18.3084C24.7039 18.2673 24.8297 18.273 24.9397 18.3243C25.0496 18.3756 25.1348 18.4683 25.1767 18.5822C25.1767 18.5822 26.2004 21.39 26.3607 21.9853C26.4236 22.1869 25.8414 22.5844 25.6529 22.4166M3.75012 25.4531H6.74074L7.78137 26.8687L7.27512 27.8062C7.24753 27.8599 7.20944 27.9074 7.16312 27.946C7.11679 27.9847 7.06318 28.0136 7.00546 28.0311C6.94774 28.0486 6.88709 28.0543 6.82712 28.0479C6.76715 28.0414 6.70908 28.023 6.65637 27.9937C6.65637 27.9937 4.03137 26.5875 3.50637 26.25C3.33762 26.1375 3.50637 25.4531 3.75012 25.4531Z" fill="#533566"/>
<path d="M13.7251 17.0713L16.0688 20.2963L18.1688 18.965C18.414 18.8054 18.5873 18.5566 18.6521 18.2713C18.7168 17.986 18.6679 17.6867 18.5157 17.4369L16.7063 14.4463L13.7251 17.0713Z" fill="#636363"/>
<path d="M10.0378 18.028L12.3844 20.3437C12.5059 20.4636 12.6519 20.5558 12.8124 20.6139C12.9729 20.6721 13.1441 20.6948 13.3142 20.6805C13.4843 20.6663 13.6494 20.6154 13.7979 20.5314C13.9465 20.4473 14.0752 20.3321 14.175 20.1937L16.3219 17.203C16.3219 17.203 17.2594 15.853 16.9313 15.0093C16.8534 14.667 16.6996 14.3466 16.4813 14.0718L11.9438 16.3968" fill="#9B9B9B"/>
<path opacity="0.51" d="M4.49346 9.41393C4.51372 9.43747 4.52399 9.46799 4.52206 9.499C4.52013 9.53 4.50617 9.55902 4.48314 9.57987C4.29564 9.74487 4.13627 9.93299 4.00502 10.1442C3.98327 10.1938 3.97865 10.2492 3.99189 10.3017C4.00462 10.3428 4.02986 10.3789 4.06408 10.4049C4.09484 10.4286 4.13084 10.4447 4.16908 10.4517C4.17836 10.4535 4.18784 10.4538 4.19721 10.4527C4.28846 10.3633 4.37502 10.2705 4.45689 10.1742C4.47282 10.1458 4.49167 10.1191 4.51314 10.0946C4.60783 9.99143 4.68564 10.0308 4.72033 10.073C4.73765 10.0937 4.7473 10.1197 4.74764 10.1467C4.74798 10.1737 4.739 10.2 4.72221 10.2211L4.65283 10.3055L4.64439 10.3242C4.60877 10.4067 4.56939 10.5699 4.58814 10.8727C4.58988 10.9038 4.57921 10.9343 4.55846 10.9575C4.53771 10.9807 4.5086 10.9947 4.47752 10.9964C4.44644 10.9982 4.41594 10.9875 4.39273 10.9667C4.36952 10.946 4.35551 10.9169 4.35377 10.8858C4.34895 10.8006 4.34801 10.7152 4.35096 10.6299C4.28627 10.6899 4.19721 10.6936 4.13252 10.6833C4.04874 10.6689 3.97046 10.632 3.90605 10.5765C3.84165 10.521 3.79355 10.449 3.76689 10.3683C3.73533 10.2557 3.74703 10.1353 3.79971 10.0308C3.94533 9.79518 4.12127 9.58612 4.32752 9.40362C4.33907 9.39335 4.35254 9.38547 4.36714 9.38043C4.38175 9.37539 4.39721 9.37329 4.41263 9.37425C4.42806 9.37521 4.44314 9.37921 4.45701 9.38602C4.47088 9.39283 4.48327 9.40231 4.49346 9.41393Z" fill="#E5AF93"/>
<path d="M11.9438 16.4249L16.8001 14.5967C16.3566 13.7933 15.3751 11.8939 15.0001 10.7192C14.9626 8.6736 13.8095 8.1561 13.8095 8.1561C13.4401 8.0219 13.0418 7.98764 12.655 8.05678C12.2681 8.12592 11.9063 8.29601 11.6063 8.54985C11.2047 8.86412 10.919 9.30313 10.7945 9.79766L10.7907 9.79673C10.5047 10.9204 10.4596 12.0918 10.6583 13.2341C10.857 14.3765 11.2951 15.4638 11.9438 16.4249Z" fill="#00A6ED"/>
<path d="M9.90016 6.55375C9.9611 6.57437 9.99391 6.64093 9.97422 6.70187C9.92168 6.86013 9.8088 6.99126 9.6601 7.06675C9.51141 7.14224 9.33893 7.15598 9.18016 7.105C9.165 7.10075 9.15086 7.09349 9.13857 7.08365C9.12628 7.07381 9.11609 7.0616 9.10863 7.04774C9.10116 7.03388 9.09656 7.01866 9.09511 7.00299C9.09365 6.98731 9.09537 6.97151 9.10016 6.95651C9.10495 6.94151 9.11271 6.92764 9.12298 6.91571C9.13325 6.90378 9.14582 6.89404 9.15993 6.88707C9.17405 6.8801 9.18943 6.87605 9.20514 6.87516C9.22086 6.87427 9.2366 6.87655 9.25141 6.88187C9.35137 6.91421 9.46006 6.90575 9.55382 6.85834C9.64758 6.81094 9.71882 6.72842 9.75204 6.62875C9.75681 6.61408 9.76444 6.6005 9.77448 6.58879C9.78451 6.57707 9.79676 6.56746 9.81053 6.56049C9.82429 6.55352 9.83929 6.54934 9.85467 6.54818C9.87005 6.54702 9.88551 6.54892 9.90016 6.55375Z" fill="#990838"/>
<path d="M9.25321 5.54068C9.23596 5.5395 9.21912 5.53491 9.20364 5.52719C9.18817 5.51947 9.17437 5.50877 9.16305 5.4957C9.15172 5.48264 9.14309 5.46746 9.13765 5.45105C9.13221 5.43463 9.13006 5.41731 9.13134 5.40006C9.13376 5.33233 9.1495 5.26575 9.17768 5.20411C9.20585 5.14247 9.24589 5.08699 9.29552 5.04085C9.34515 4.9947 9.4034 4.95879 9.46692 4.93517C9.53044 4.91155 9.59799 4.90068 9.66571 4.90319C9.73344 4.90068 9.80099 4.91155 9.86451 4.93517C9.92803 4.95879 9.98627 4.9947 10.0359 5.04085C10.0855 5.08699 10.1256 5.14247 10.1538 5.20411C10.1819 5.26575 10.1977 5.33233 10.2001 5.40006C10.2014 5.41731 10.1992 5.43463 10.1938 5.45105C10.1883 5.46746 10.1797 5.48264 10.1684 5.4957C10.1571 5.50877 10.1433 5.51947 10.1278 5.52719C10.1123 5.53491 10.0955 5.5395 10.0782 5.54068H9.25321Z" fill="white"/>
<path d="M9.78854 5.54016C9.79847 5.49806 9.8035 5.45497 9.80354 5.41172C9.80354 5.17359 9.65261 4.98047 9.46511 4.98047C9.27761 4.98047 9.12573 5.17359 9.12573 5.41172C9.12573 5.45672 9.13105 5.49953 9.14167 5.54016H9.78854Z" fill="#7D4533"/>
<path d="M9.61984 5.54051C9.63208 5.50329 9.63841 5.46438 9.63859 5.4252C9.63859 5.2752 9.55422 5.15332 9.44922 5.15332C9.34609 5.15332 9.26172 5.2752 9.26172 5.4252C9.26172 5.46707 9.26766 5.50551 9.27953 5.54051H9.61984Z" fill="#1C1C1C"/>
<path d="M9.29072 5.31475C9.32728 5.31475 9.35635 5.27725 9.35635 5.23037C9.35635 5.1835 9.32728 5.146 9.29072 5.146C9.25416 5.146 9.2251 5.1835 9.2251 5.23037C9.2251 5.27725 9.25416 5.31475 9.29072 5.31475Z" fill="white"/>
<path d="M13.4409 10.5536C13.0807 10.65 12.6968 10.5994 12.3738 10.4129C12.0509 10.2263 11.8152 9.91915 11.7188 9.55887C11.6223 9.19859 11.6729 8.81474 11.8594 8.49177C12.046 8.16879 12.3532 7.93315 12.7134 7.83668L15.8822 6.9873L16.6106 9.70418L13.4409 10.5536Z" fill="#0092E7"/>
<path d="M9.29645 4.2258C9.58211 4.19639 9.86967 4.25949 10.1168 4.4058L10.1871 4.45267L10.1927 4.45736L10.1946 4.45924C10.2359 4.49633 10.2614 4.54779 10.266 4.60309C10.2705 4.65839 10.2538 4.71335 10.2192 4.75672C10.1846 4.80008 10.1347 4.82858 10.0797 4.83636C10.0248 4.84415 9.96895 4.83065 9.92364 4.79861L9.91895 4.7958L9.88989 4.77705C9.85226 4.75465 9.8131 4.73491 9.7727 4.71799L9.60489 4.6683C9.518 4.65247 9.42931 4.649 9.34145 4.65799C9.28562 4.66117 9.23071 4.64273 9.18812 4.60648C9.14553 4.57024 9.11853 4.51899 9.11274 4.46336C9.10695 4.40774 9.12281 4.35203 9.15702 4.30779C9.19123 4.26355 9.24116 4.23419 9.29645 4.2258Z" fill="#212121"/>
<path d="M13.2188 2.30593C13.9125 2.47468 14.2781 3.11218 14.2781 3.78718C14.2781 3.78718 14.2688 4.33093 14.175 4.80905C14.1281 5.06218 14.0625 5.32468 14.0063 5.54968C13.9313 5.8028 13.8 6.1403 13.65 6.34655C13.5188 6.53405 13.2188 6.7028 12.9375 6.7403C12.6975 6.76468 12.2859 6.5903 12.1894 6.27624C12.3212 6.18888 12.4197 6.05965 12.469 5.90942C12.5183 5.75919 12.5155 5.59672 12.4611 5.44826C12.4067 5.2998 12.3039 5.17401 12.1692 5.09119C12.0345 5.00838 11.8758 4.97339 11.7188 4.99186V5.00311C11.6319 4.97966 11.5556 4.92713 11.5027 4.85429C11.4498 4.78145 11.4235 4.6927 11.4281 4.6028C11.4351 4.53963 11.4291 4.47569 11.4104 4.41494C11.3917 4.35418 11.3608 4.29791 11.3195 4.24959C11.2782 4.20127 11.2274 4.16192 11.1703 4.13399C11.1132 4.10606 11.051 4.09012 10.9875 4.08718L9.15001 3.97468C9.14063 3.9653 9.12188 3.9653 9.11251 3.9653C8.92051 3.93369 8.74643 3.83371 8.62238 3.6838C8.49832 3.5339 8.43266 3.34419 8.43751 3.14968C8.44688 2.68093 8.83126 2.32468 9.29063 2.3528C9.42188 2.36218 9.55313 2.29655 9.63751 2.19343C9.75954 2.04331 9.92851 1.93859 10.1172 1.89608C10.306 1.85357 10.5035 1.87575 10.6781 1.95905C10.95 2.0903 11.2594 2.10905 11.5406 2.0153C11.6531 1.9778 11.7656 1.96843 11.8781 1.96843C12.0281 1.9778 12.1688 2.02468 12.2906 2.0903C12.4594 2.2028 12.6563 2.25905 12.8625 2.25905C12.9844 2.25905 13.0969 2.2778 13.2188 2.30593Z" fill="#212121"/>
</svg>
