<svg width="30" height="30" viewBox="0 0 30 30" fill="none" xmlns="http://www.w3.org/2000/svg">
<path d="M10.9946 10.3824L13.5399 8.62695L18.879 15.4613L14.7446 17.8871L10.9946 10.3824Z" fill="#FBC11B"/>
<path d="M13.7848 9.87156C13.9832 9.02861 13.4606 8.1845 12.6176 7.98618C11.7747 7.78786 10.9306 8.31044 10.7323 9.15339C10.5339 9.99634 11.0565 10.8405 11.8995 11.0388C12.7424 11.2371 13.5865 10.7145 13.7848 9.87156Z" fill="#FBC11B"/>
<path d="M5.60168 9.40762L5.83137 7.17871L12.4595 7.95215L12.1454 11.0271L5.60168 9.40762Z" fill="#FBC11B"/>
<path d="M18.0261 18.7434C19.1683 18.0733 19.5511 16.6043 18.8811 15.4621C18.2111 14.3199 16.742 13.9372 15.5998 14.6072C14.4577 15.2772 14.0749 16.7462 14.7449 17.8884C15.4149 19.0306 16.884 19.4134 18.0261 18.7434Z" fill="#FBC11B"/>
<path d="M2.16107 10.2746L2.17748 10.3215C2.5056 11.2191 3.5017 11.6808 4.39935 11.3527L6.4642 10.598C7.36185 10.2699 7.82357 9.27382 7.49545 8.37616L7.47904 8.32928C7.15091 7.43163 6.15482 6.96991 5.25716 7.29803L3.19232 8.05272C2.29466 8.38319 1.83295 9.37694 2.16107 10.2746Z" fill="#FBC11B"/>
<path d="M4.51172 9.44043L5.18203 11.2686C5.2341 11.4105 5.34032 11.5259 5.4774 11.5896C5.61448 11.6533 5.77123 11.6601 5.91328 11.6084L6.69844 11.3201C7.6125 10.985 8.08125 9.9748 7.74609 9.06074L7.48594 8.35059L4.51172 9.44043Z" fill="#FBC11B"/>
<path d="M16.104 20.625L18.4547 15.6445L26.6227 19.5023L21.9305 29.4352L13.7649 25.5773L16.104 20.625Z" fill="#FBC11B"/>
<path d="M11.3907 20.5145C11.5712 19.877 12.6493 17.5942 13.0267 17.0504C14.2196 15.3301 15.5884 14.3035 17.1282 15.0324L22.3782 17.5121L20.0345 22.4785L17.6861 27.4449L12.4361 24.9653C10.8962 24.2387 10.8189 22.5278 11.3907 20.5145Z" fill="#FBC11B"/>
<path d="M14.3226 20.7915C14.4279 20.6327 14.5008 20.4547 14.5373 20.2677C14.5738 20.0807 14.5731 19.8883 14.5352 19.7016C14.4973 19.5148 14.423 19.3374 14.3166 19.1794C14.2101 19.0213 14.0736 18.8858 13.9148 18.7806L12.8812 18.0962L11.2804 20.5149L12.314 21.1993C12.9796 21.6423 13.8796 21.4595 14.3226 20.7915Z" fill="#E7A13D"/>
<path d="M12.2108 21.1339C12.2108 21.1339 12.703 20.7964 13.1999 20.0487C13.6944 19.301 13.8374 18.7268 13.8374 18.7268L12.6491 17.9393C12.3304 17.7284 11.8476 17.712 11.6366 18.0284L10.7296 19.3971C10.5187 19.7135 10.7038 20.1354 11.0202 20.3464L12.2108 21.1339Z" fill="#E7A13D"/>
<path d="M4.39455 14.2875C4.39455 14.2875 4.42502 14.2383 4.43908 14.2172L4.48596 14.1469C6.36096 11.6672 8.1844 12.0727 9.29533 12.5789C10.5 13.125 11.3367 13.6149 11.3367 13.6149C11.3367 13.6149 11.2641 13.6289 11.1469 13.6664C11.025 13.7086 10.9242 13.7766 10.9242 13.7766L11.7539 14.5242L9.26018 14.1774C9.25274 14.176 9.24508 14.1772 9.23833 14.1805C9.23157 14.1839 9.22609 14.1894 9.22268 14.1961L8.92736 14.7727C8.62909 15.3513 8.30051 15.9138 7.94299 16.4578C7.92658 16.4813 7.91018 16.5047 7.89611 16.5281C7.87971 16.5516 7.86565 16.575 7.84924 16.5985C7.48799 17.1405 7.09838 17.6631 6.68205 18.1641L6.26721 18.661C6.2623 18.6668 6.25941 18.674 6.25899 18.6817C6.25857 18.6893 6.26063 18.6968 6.26486 18.7031L7.55861 20.8641L6.54611 20.3906C6.54611 20.3906 6.52033 20.5102 6.53205 20.6391C6.54143 20.761 6.55783 20.8336 6.55783 20.8336C6.55783 20.8336 5.69533 20.2828 4.7719 19.336C3.89299 18.4383 2.88049 16.9078 4.39455 14.2875Z" fill="#6D4C41"/>
<path d="M6.58593 20.2429C6.58593 20.2429 6.29999 20.8945 6.93046 21.3117C7.48593 21.6797 7.98749 21.3984 8.27108 20.9718L6.76405 19.9734L6.58593 20.2429ZM10.8094 13.8609C10.8094 13.8609 11.2992 13.3429 11.9273 13.7601C12.4828 14.1281 12.4195 14.7 12.1383 15.1265L10.6312 14.1281L10.8094 13.8609Z" fill="#E49500"/>
<path d="M4.57033 14.3205C6.23908 11.7986 8.63205 12.4337 11.3766 14.2525C14.2242 16.1369 13.7485 18.4548 12.8531 19.8072C11.9719 21.1384 10.0313 22.5142 7.16251 20.6158C4.42033 18.7947 2.90158 16.8423 4.57033 14.3205Z" fill="#FBC11B"/>
<path d="M10.221 16.5541C10.5046 16.7416 10.8609 16.7041 11.0156 16.4697C11.1703 16.2353 11.0671 15.8908 10.7835 15.7033C10.5 15.5158 10.1437 15.5533 9.98667 15.7877C9.83198 16.0244 9.93511 16.3642 10.221 16.5541ZM8.83355 18.647C9.11714 18.8345 9.22027 19.1767 9.06558 19.4134C8.91089 19.6478 8.55464 19.6877 8.27105 19.4978C7.98745 19.3103 7.88433 18.9658 8.03902 18.7314C8.1937 18.497 8.54995 18.4595 8.83355 18.647Z" fill="#C07B47"/>
<path d="M10.1835 18.6753C10.3312 18.5487 10.4601 18.3987 10.5444 18.2745C10.6288 18.1503 10.7132 17.9722 10.7718 17.787C10.7976 17.7073 10.8773 17.7237 10.9054 17.7753C10.9593 17.8831 11.0038 18.1995 10.828 18.4644C10.6523 18.7292 10.3452 18.8112 10.2233 18.8042C10.1671 18.7995 10.1202 18.7316 10.1835 18.6753Z" fill="#E49500"/>
<path d="M9.29528 17.9156C9.72653 18.2062 9.83435 18.8015 9.33513 19.5398C8.84294 20.2687 8.24294 20.4023 7.81169 20.1117C7.38044 19.8211 7.25388 19.2515 7.77185 18.4875C8.27341 17.7445 8.86169 17.625 9.29528 17.9156Z" fill="#01579B"/>
<path d="M9.07043 18.2482C9.38684 18.4615 9.47356 18.8834 9.12668 19.3966C8.78449 19.9029 8.35324 19.9896 8.03684 19.7763C7.72043 19.5631 7.61965 19.1599 7.98059 18.6279C8.32981 18.1099 8.75403 18.0349 9.07043 18.2482Z" fill="#B3E5FC"/>
<mask id="mask0_28_948" style="mask-type:luminance" maskUnits="userSpaceOnUse" x="7" y="18" width="3" height="2">
<path d="M9.07043 18.2482C9.38684 18.4615 9.47356 18.8834 9.12668 19.3966C8.78449 19.9029 8.35324 19.9896 8.03684 19.7763C7.72043 19.5631 7.61965 19.1599 7.98059 18.6279C8.32981 18.1099 8.75403 18.0349 9.07043 18.2482Z" fill="white"/>
</mask>
<g mask="url(#mask0_28_948)">
<path d="M9.23921 20.1482L8.13062 18.2475L8.26421 17.5303L9.3728 19.4311L9.23921 20.1482Z" fill="white"/>
</g>
<path d="M11.2218 15.0631C11.653 15.3537 11.7609 15.949 11.2616 16.6873C10.7695 17.4162 10.1695 17.5498 9.7382 17.2592C9.30695 16.9686 9.18039 16.399 9.69836 15.635C10.1999 14.8896 10.7905 14.7725 11.2218 15.0631Z" fill="#01579B"/>
<path d="M10.9969 15.3962C11.3134 15.6094 11.4001 16.0313 11.0532 16.5446C10.711 17.0508 10.2798 17.1376 9.96335 16.9243C9.64695 16.711 9.54616 16.3079 9.9071 15.7758C10.2587 15.2579 10.6805 15.1829 10.9969 15.3962Z" fill="#B3E5FC"/>
<mask id="mask1_28_948" style="mask-type:luminance" maskUnits="userSpaceOnUse" x="9" y="15" width="3" height="3">
<path d="M10.9969 15.3962C11.3134 15.6094 11.4001 16.0313 11.0532 16.5446C10.711 17.0508 10.2798 17.1376 9.96335 16.9243C9.64695 16.711 9.54616 16.3079 9.9071 15.7758C10.2587 15.2579 10.6805 15.1829 10.9969 15.3962Z" fill="white"/>
</mask>
<g mask="url(#mask1_28_948)">
<path d="M11.1657 17.2971L10.0571 15.3963L10.1931 14.6768L11.3017 16.5775L11.1657 17.2971Z" fill="white"/>
</g>
<path d="M10.0617 17.3114L9.46401 18.195L9.02339 17.8974L9.62104 17.0138L10.0617 17.3114ZM11.1726 14.0911C11.4679 14.4427 11.4914 14.8833 11.3976 15.3333L10.957 15.0356C11.1234 14.67 11.0906 14.2552 10.732 13.7935L11.1726 14.0911ZM6.89058 20.431C7.32886 20.5716 7.74604 20.4286 8.13042 20.1708L7.68745 19.8755C7.41089 20.1685 7.01245 20.2927 6.44995 20.1356L6.89058 20.431Z" fill="#01579B"/>
<path d="M4.25619 14.0175C4.25619 14.0175 4.22103 14.0667 4.20931 14.0878C4.19525 14.1089 4.16478 14.1581 4.16478 14.1581C2.5265 16.9026 3.73822 18.7917 4.64525 19.5698C5.64838 20.43 6.56009 20.8355 6.56009 20.8355C6.56009 20.8355 6.54369 20.7628 6.53431 20.6409C6.52494 20.512 6.54838 20.3925 6.54838 20.3925C6.54838 20.3925 6.25541 19.1198 6.44056 18.0604C6.63041 16.98 7.80697 15.2034 8.60853 14.6714C9.45697 14.1065 9.94681 13.8581 10.9288 13.7761C10.9288 13.7761 11.0296 13.7058 11.1515 13.6659C11.2663 13.6261 11.3413 13.6144 11.3413 13.6144C11.3413 13.6144 10.5913 12.9769 9.42884 12.3464C8.54291 11.8683 6.22963 11.3972 4.25619 14.0175Z" fill="#EF6C00"/>
<path d="M22.5023 20.8966C21.082 20.8966 20.2922 19.2114 18.7523 19.2114C17.2125 19.2114 16.425 20.8966 15.0023 20.8966C13.5797 20.8966 12.7922 19.2114 11.2523 19.2114C9.7125 19.2114 8.925 20.8966 7.50234 20.8966C6.07969 20.8966 5.29219 19.2114 3.75234 19.2114C2.2125 19.2114 1.425 20.8966 0.00234375 20.8966V19.2114H0V29.9997H29.9836V20.8966C28.575 20.8825 27.7852 19.2138 26.2523 19.2138C24.7125 19.2138 23.9227 20.8966 22.5023 20.8966Z" fill="#039BE5"/>
<path d="M29.9929 23.0859C28.5726 23.0859 27.7828 24.7711 26.2429 24.7711H29.9929V23.0859ZM26.2429 24.7711C24.7031 24.7711 23.9156 23.0859 22.4929 23.0859C21.0726 23.0859 20.2828 24.7711 18.7429 24.7711H26.2429Z" fill="#29B6F6"/>
<path d="M18.7454 24.7711C17.2055 24.7711 16.418 23.0859 14.9954 23.0859C13.5727 23.0859 12.7852 24.7711 11.2454 24.7711H18.7454Z" fill="#29B6F6"/>
<path d="M11.2477 24.7711C9.70784 24.7711 8.92034 23.0859 7.49768 23.0859C6.07502 23.0859 5.28752 24.7711 3.74768 24.7711H11.2477Z" fill="#29B6F6"/>
<path d="M3.75 24.7711C2.21016 24.7711 1.42266 23.0859 0 23.0859V24.7711H3.75ZM30 30H0V24.7711H30V30Z" fill="#29B6F6"/>
</svg>
